<?xml version="1.0" encoding="UTF-8"?>
<!-- Created with Inkscape (http://www.inkscape.org/) -->
<svg width="512" height="512" version="1.1" viewBox="0 0 135 135" xmlns="http://www.w3.org/2000/svg">
 <path d="m19.1 1.59h97.2c3.34 0 6.03 2.85 6.03 6.39v120c0 3.54-2.69 6.39-6.03 6.39h-97.2c-3.34 0-6.03-2.85-6.03-6.39v-120c0-3.54 2.69-6.39 6.03-6.39z" fill="#8610c1" stop-color="#000000" stroke-width=".778"/>
 <path transform="matrix(1.58 0 0 1.57 -5.63 -15.8)" d="m46.2 23.5a0.232 0.232 0 0 0-0.248 0.191l-2.69 16.1-6.05-2.59a0.232 0.232 0 0 0-0.256 0.377l9.05 9.05a0.232 0.232 0 0 0 0.396-0.164v-22.7a0.232 0.232 0 0 0-0.213-0.23zm0.803 0a0.232 0.232 0 0 0-0.213 0.23v22.7a0.232 0.232 0 0 0 0.396 0.164l9.05-9.05a0.232 0.232 0 0 0-0.256-0.377l-6.05 2.59-2.68-16.1a0.232 0.232 0 0 0-0.248-0.191zm9.7 14.3a0.232 0.232 0 0 0-0.195 0.0664l-9.05 9.05a0.232 0.232 0 0 0 0.164 0.396h22.7a0.232 0.232 0 0 0 0.0391-0.461l-16.1-2.68 2.59-6.05a0.232 0.232 0 0 0-0.182-0.322zm-20.3 0.0391a0.232 0.232 0 0 0-0.082 0.283l2.59 6.05-16.1 2.68a0.232 0.232 0 0 0 0.0391 0.461h22.7a0.232 0.232 0 0 0 0.164-0.396l-9.05-9.05a0.232 0.232 0 0 0-0.295-0.0273zm-13.6 9.85a0.232 0.232 0 0 0-0.0391 0.461l16.1 2.69-2.59 6.05a0.232 0.232 0 0 0 0.377 0.256l9.05-9.05a0.232 0.232 0 0 0-0.164-0.396zm24.8 0a0.232 0.232 0 0 0-0.164 0.396l9.05 9.05a0.232 0.232 0 0 0 0.377-0.256l-2.59-6.05 16.1-2.69a0.232 0.232 0 0 0-0.0391-0.461zm-1.35 0.613a0.232 0.232 0 0 0-0.252 0.0508l-9.05 9.05a0.232 0.232 0 0 0 0.256 0.377l6.05-2.59 2.69 16.1a0.232 0.232 0 0 0 0.461-0.0391v-22.7a0.232 0.232 0 0 0-0.145-0.215zm0.666 0a0.232 0.232 0 0 0-0.145 0.215v22.7a0.232 0.232 0 0 0 0.461 0.0391l2.68-16.1 6.05 2.59a0.232 0.232 0 0 0 0.256-0.377l-9.05-9.05a0.232 0.232 0 0 0-0.252-0.0508z" fill="#fff" stroke-width=".278"/>
 <path d="m21.7 118c-2.57 0-4.64 2.07-4.64 4.64v3.53c0 2.57 2.07 4.64 4.64 4.64h99.5c0.734-1.06 1.17-2.36 1.17-3.78v-9.02z" fill="#fff" stop-color="#000000" stroke-width=".778"/>
</svg>
