<?xml version="1.0" encoding="UTF-8"?>
<!-- Created with Inkscape (http://www.inkscape.org/) -->
<svg width="512" height="512" version="1.1" viewBox="0 0 135 135" xmlns="http://www.w3.org/2000/svg">
 <rect width="135" height="135" ry="0" fill="#f9f9f9" stop-color="#000000" stroke-width=".618" style="-inkscape-stroke:none"/>
 <path d="m36.9 25.7h61.7c2.12 0 3.83 1.81 3.83 4.06v75.9c0 2.25-1.71 4.06-3.83 4.06h-61.7c-2.12 0-3.83-1.81-3.83-4.06v-75.9c0-2.25 1.71-4.06 3.83-4.06z" fill="#8610c1" stop-color="#000000" stroke-width=".494"/>
 <path transform="translate(21.2 14.7)" d="m46.2 23.5a0.232 0.232 0 0 0-0.248 0.191l-2.69 16.1-6.05-2.59a0.232 0.232 0 0 0-0.256 0.377l9.05 9.05a0.232 0.232 0 0 0 0.396-0.164v-22.7a0.232 0.232 0 0 0-0.213-0.23zm0.803 0a0.232 0.232 0 0 0-0.213 0.23v22.7a0.232 0.232 0 0 0 0.396 0.164l9.05-9.05a0.232 0.232 0 0 0-0.256-0.377l-6.05 2.59-2.68-16.1a0.232 0.232 0 0 0-0.248-0.191zm9.7 14.3a0.232 0.232 0 0 0-0.195 0.0664l-9.05 9.05a0.232 0.232 0 0 0 0.164 0.396h22.7a0.232 0.232 0 0 0 0.0391-0.461l-16.1-2.68 2.59-6.05a0.232 0.232 0 0 0-0.182-0.322zm-20.3 0.0391a0.232 0.232 0 0 0-0.082 0.283l2.59 6.05-16.1 2.68a0.232 0.232 0 0 0 0.0391 0.461h22.7a0.232 0.232 0 0 0 0.164-0.396l-9.05-9.05a0.232 0.232 0 0 0-0.295-0.0273zm-13.6 9.85a0.232 0.232 0 0 0-0.0391 0.461l16.1 2.69-2.59 6.05a0.232 0.232 0 0 0 0.377 0.256l9.05-9.05a0.232 0.232 0 0 0-0.164-0.396zm24.8 0a0.232 0.232 0 0 0-0.164 0.396l9.05 9.05a0.232 0.232 0 0 0 0.377-0.256l-2.59-6.05 16.1-2.69a0.232 0.232 0 0 0-0.0391-0.461zm-1.35 0.613a0.232 0.232 0 0 0-0.252 0.0508l-9.05 9.05a0.232 0.232 0 0 0 0.256 0.377l6.05-2.59 2.69 16.1a0.232 0.232 0 0 0 0.461-0.0391v-22.7a0.232 0.232 0 0 0-0.145-0.215zm0.666 0a0.232 0.232 0 0 0-0.145 0.215v22.7a0.232 0.232 0 0 0 0.461 0.0391l2.68-16.1 6.05 2.59a0.232 0.232 0 0 0 0.256-0.377l-9.05-9.05a0.232 0.232 0 0 0-0.252-0.0508z" fill="#fff" stroke-width=".278"/>
 <path d="m38.5 99.9c-1.63 0-2.94 1.31-2.94 2.95v2.24c0 1.63 1.31 2.95 2.94 2.95h63.1c0.466-0.672 0.744-1.5 0.744-2.4v-5.73z" fill="#fff" stop-color="#000000" stroke-width=".494"/>
</svg>
